<?xml version="1.0" encoding="utf-8"?>
<!-- Generator: Adobe Illustrator 25.2.1, SVG Export Plug-In . SVG Version: 6.00 Build 0)  -->
<svg version="1.1" id="Layer_1" xmlns="http://www.w3.org/2000/svg" xmlns:xlink="http://www.w3.org/1999/xlink" x="0px" y="0px"
	 viewBox="0 0 60 60" style="enable-background:new 0 0 60 60;" xml:space="preserve">
<style type="text/css">
	.st0{clip-path:url(#SVGID_2_);}
	.st1{fill-rule:evenodd;clip-rule:evenodd;fill:#FFFFFF;}
	.st2{fill:#FFFFFF;filter:url(#Adobe_OpacityMaskFilter);}
	.st3{mask:url(#mask0_2_);}
	.st4{fill:#06C167;}
</style>
<g>
	<g>
		<defs>
			<rect id="SVGID_1_" width="60" height="60"/>
		</defs>
		<clipPath id="SVGID_2_">
			<use xlink:href="#SVGID_1_"  style="overflow:visible;"/>
		</clipPath>
		<g class="st0">
			<g>
				<path class="st1" d="M60,18.8c0-0.7,0-1.4,0-2.1c0-0.6,0-1.2,0-1.8c0-1.3-0.1-2.6-0.3-3.9c-0.2-1.3-0.6-2.5-1.2-3.7
					c-0.6-1.2-1.4-2.3-2.3-3.2c-0.9-0.9-2-1.7-3.2-2.3c-1.2-0.6-2.4-1-3.7-1.2c-1.3-0.2-2.6-0.3-3.9-0.3c-0.6,0-1.2,0-1.8,0
					c-0.7,0-1.4,0-2.2,0H18.8c-0.7,0-1.4,0-2.1,0c-0.6,0-1.2,0-1.8,0c-1.3,0-2.6,0.1-3.9,0.3C9.5,0.6,8.3,1,7.1,1.6
					C5.9,2.2,4.9,3,3.9,3.9C3,4.9,2.2,5.9,1.6,7.1c-0.6,1.2-1,2.4-1.2,3.7c-0.2,1.3-0.3,2.6-0.3,3.9c0,0.6,0,1.2,0,1.8
					c0,0.7,0,1.4,0,2.1v22.5c0,0.7,0,1.4,0,2.2c0,0.6,0,1.2,0,1.8c0,1.3,0.1,2.6,0.3,3.9c0.2,1.3,0.6,2.5,1.2,3.7
					c0.6,1.2,1.4,2.3,2.3,3.2c0.9,0.9,2,1.7,3.2,2.3c1.2,0.6,2.4,1,3.7,1.2c1.3,0.2,2.6,0.3,3.9,0.3c0.6,0,1.2,0,1.8,0
					c0.7,0,1.4,0,2.1,0h22.5c0.7,0,1.4,0,2.2,0c0.6,0,1.2,0,1.8,0c1.3,0,2.6-0.1,3.9-0.3c1.3-0.2,2.5-0.6,3.7-1.2
					c1.2-0.6,2.3-1.4,3.2-2.3c0.9-0.9,1.7-2,2.3-3.2c0.6-1.2,1-2.4,1.2-3.7c0.2-1.3,0.3-2.6,0.3-3.9c0-0.6,0-1.2,0-1.8
					c0-0.7,0-1.4,0-2.2V18.8z"/>
			</g>
			<defs>
				<filter id="Adobe_OpacityMaskFilter" filterUnits="userSpaceOnUse" x="-3" y="-1.4" width="66" height="62.7">
					<feColorMatrix  type="matrix" values="1 0 0 0 0  0 1 0 0 0  0 0 1 0 0  0 0 0 1 0"/>
				</filter>
			</defs>
			<mask maskUnits="userSpaceOnUse" x="-3" y="-1.4" width="66" height="62.7" id="mask0_2_">
				<path class="st2" d="M0,4.8C0,2.1,2.1,0,4.8,0h50.4C57.9,0,60,2.1,60,4.8v50.4c0,2.7-2.1,4.8-4.8,4.8H4.8C2.1,60,0,57.9,0,55.2
					V4.8z"/>
			</mask>
			<g class="st3">
				<rect x="-3" y="-1.4" class="st4" width="66" height="62.7"/>
			</g>
		</g>
	</g>
</g>
<path d="M28.6,41.5c0-1.9-1.5-3.5-3.4-3.5c-1.9,0-3.5,1.5-3.5,3.4s1.5,3.5,3.4,3.5h0C27,45,28.6,43.4,28.6,41.5L28.6,41.5
	 M31.4,35.9v11.2h-2.9v-1c-1,0.8-2.3,1.3-3.7,1.3c-3.4,0-6.1-2.6-6.1-5.9c0-3.3,2.7-5.9,6.1-5.9c1.3,0,2.6,0.5,3.7,1.3v-1
	C28.6,35.9,31.4,35.9,31.4,35.9z M41.1,44.6h-2.2c-0.7,0-1.1-0.3-1.1-0.9v-5.3h3.3v-2.6h-3.3v-3.2h-2.9v3.2h-2.2v2.6h2.2v6
	c0,1.5,1.1,2.7,3,2.7h3.1C41.1,47.1,41.1,44.6,41.1,44.6z M47.6,47.4c3.3,0,5.2-1.6,5.2-3.7c0-1.5-1.1-2.7-3.4-3.2L47,40
	c-1.4-0.3-1.9-0.5-1.9-1c0-0.7,0.7-1.1,2-1.1c1.4,0,2.4,0.4,2.7,1.6h2.9c-0.2-2.3-1.9-3.9-5.4-3.9c-3,0-5.1,1.2-5.1,3.6
	c0,1.6,1.2,2.7,3.7,3.2l2.8,0.6c1.1,0.2,1.4,0.5,1.4,0.9c0,0.7-0.8,1.1-2.2,1.1c-1.7,0-2.6-0.4-3-1.6h-2.9
	C42.3,45.8,44,47.4,47.6,47.4 M7.1,31.9H18v2.6h-8v3.7h7.7v2.5h-7.7v3.8h8v2.6H7.1V31.9z M52.6,18.7v-2h-0.8c-1.2,0-2.2,0.6-2.7,1.5
	v-1.4h-2.2v11.1h2.2v-6.3c0-1.7,1.1-2.8,2.5-2.8C51.7,18.7,52.6,18.7,52.6,18.7z M36.5,21.3c0.4-1.7,1.8-2.8,3.5-2.8
	s3.1,1.1,3.4,2.8H36.5z M40,16.5c-3.2,0-5.8,2.5-5.8,5.7v0.1c0,3.3,2.6,5.8,6,5.8c2.1,0,3.7-0.9,4.9-2.4l-1.6-1.2
	c-0.8,1.1-1.9,1.6-3.3,1.6c-1.9,0-3.4-1.3-3.7-3.2h9.2v-0.7C45.7,19,43.3,16.5,40,16.5 M27.2,26.2c-2.1,0-3.8-1.8-3.8-3.9
	c0-2.1,1.8-3.8,3.9-3.8c2.1,0,3.8,1.7,3.8,3.8C31.1,24.4,29.4,26.2,27.2,26.2L27.2,26.2 M21.1,27.8h2.2v-1.4c1.1,1.1,2.5,1.7,4,1.7
	c3.3,0,5.9-2.6,5.9-5.8c0-3.2-2.6-5.8-5.9-5.8c-1.5,0-2.9,0.6-4,1.7v-5.5h-2.2V27.8z M13.3,26c2.2,0,3.8-1.6,3.8-4v-9.4h2.3v15.2
	h-2.3v-1.4c-1,1.1-2.5,1.7-4.1,1.7c-3.3,0-5.9-2.4-5.9-6v-9.5h2.3V22C9.5,24.5,11.1,26,13.3,26"/>
</svg>
